HIERARCHY
ROOT mixamorig:Hips
{
	OFFSET -0.000008 104.274872 1.554316
	CHANNELS 6 Xposition Yposition Zposition Xrotation Yrotation Zrotation
	JOINT mixamorig:Spine
	{
		OFFSET -0.000005 10.181595 0.131519
		CHANNELS 6 Xposition Yposition Zposition Xrotation Yrotation Zrotation
		JOINT mixamorig:Spine1
		{
			OFFSET -0.000000 9.893959 -1.470707
			CHANNELS 6 Xposition Yposition Zposition Xrotation Yrotation Zrotation
			JOINT mixamorig:Spine2
			{
				OFFSET -0.000000 9.220757 -1.370641
				CHANNELS 6 Xposition Yposition Zposition Xrotation Yrotation Zrotation
				JOINT mixamorig:Neck
				{
					OFFSET 0.000001 16.740417 -2.049036
					CHANNELS 6 Xposition Yposition Zposition Xrotation Yrotation Zrotation
					JOINT mixamorig:Head
					{
						OFFSET 0.000000 9.617874 1.685006
						CHANNELS 6 Xposition Yposition Zposition Xrotation Yrotation Zrotation
						JOINT mixamorig:HeadTop_End
						{
							OFFSET 0.000002 22.037354 7.501101
							CHANNELS 6 Xposition Yposition Zposition Xrotation Yrotation Zrotation
							End Site
							{
								OFFSET 0.000168 2310.654297 -282.823242
							}
						}
					}
				}
				JOINT mixamorig:RightShoulder
				{
					OFFSET -4.569970 11.014908 -2.160885
					CHANNELS 6 Xposition Yposition Zposition Xrotation Yrotation Zrotation
					JOINT mixamorig:RightArm
					{
						OFFSET -10.592851 -0.524811 -2.232101
						CHANNELS 6 Xposition Yposition Zposition Xrotation Yrotation Zrotation
						JOINT mixamorig:RightForeArm
						{
							OFFSET -27.841511 0.000031 -0.000004
							CHANNELS 6 Xposition Yposition Zposition Xrotation Yrotation Zrotation
							JOINT mixamorig:RightHand
							{
								OFFSET -28.328831 -0.000015 0.000015
								CHANNELS 6 Xposition Yposition Zposition Xrotation Yrotation Zrotation
								JOINT mixamorig:RightHandThumb1
								{
									OFFSET -2.464806 -1.573990 2.681852
									CHANNELS 6 Xposition Yposition Zposition Xrotation Yrotation Zrotation
									JOINT mixamorig:RightHandThumb2
									{
										OFFSET -3.215179 -1.872803 1.924282
										CHANNELS 6 Xposition Yposition Zposition Xrotation Yrotation Zrotation
										JOINT mixamorig:RightHandThumb3
										{
											OFFSET -2.654831 -1.527969 1.512609
											CHANNELS 6 Xposition Yposition Zposition Xrotation Yrotation Zrotation
											JOINT mixamorig:RightHandThumb4
											{
												OFFSET -2.018814 -1.152008 1.108052
												CHANNELS 6 Xposition Yposition Zposition Xrotation Yrotation Zrotation
												End Site
												{
													OFFSET -188.809540 -114.533607 132.431396
												}
											}
										}
									}
								}
								JOINT mixamorig:RightHandIndex1
								{
									OFFSET -9.108284 -0.517868 2.259835
									CHANNELS 6 Xposition Yposition Zposition Xrotation Yrotation Zrotation
									JOINT mixamorig:RightHandIndex2
									{
										OFFSET -3.699989 0.000000 0.001215
										CHANNELS 6 Xposition Yposition Zposition Xrotation Yrotation Zrotation
										JOINT mixamorig:RightHandIndex3
										{
											OFFSET -2.850006 0.000031 -0.000522
											CHANNELS 6 Xposition Yposition Zposition Xrotation Yrotation Zrotation
											JOINT mixamorig:RightHandIndex4
											{
												OFFSET -2.772186 -0.000015 -0.000020
												CHANNELS 6 Xposition Yposition Zposition Xrotation Yrotation Zrotation
												End Site
												{
													OFFSET -277.218445 0.000000 -0.050231
												}
											}
										}
									}
								}
								JOINT mixamorig:RightHandMiddle1
								{
									OFFSET -9.532516 -0.000031 -0.000023
									CHANNELS 6 Xposition Yposition Zposition Xrotation Yrotation Zrotation
									JOINT mixamorig:RightHandMiddle2
									{
										OFFSET -3.700005 -0.000015 0.003713
										CHANNELS 6 Xposition Yposition Zposition Xrotation Yrotation Zrotation
										JOINT mixamorig:RightHandMiddle3
										{
											OFFSET -2.949974 0.000015 -0.002054
											CHANNELS 6 Xposition Yposition Zposition Xrotation Yrotation Zrotation
											JOINT mixamorig:RightHandMiddle4
											{
												OFFSET -2.946640 0.000000 -0.000156
												CHANNELS 6 Xposition Yposition Zposition Xrotation Yrotation Zrotation
												End Site
												{
													OFFSET -294.664337 0.000000 -0.113670
												}
											}
										}
									}
								}
								JOINT mixamorig:RightHandRing1
								{
									OFFSET -9.103600 -0.043076 -1.865134
									CHANNELS 6 Xposition Yposition Zposition Xrotation Yrotation Zrotation
									JOINT mixamorig:RightHandRing2
									{
										OFFSET -3.379288 0.000000 -0.001055
										CHANNELS 6 Xposition Yposition Zposition Xrotation Yrotation Zrotation
										JOINT mixamorig:RightHandRing3
										{
											OFFSET -2.889687 -0.000015 0.000379
											CHANNELS 6 Xposition Yposition Zposition Xrotation Yrotation Zrotation
											JOINT mixamorig:RightHandRing4
											{
												OFFSET -2.638809 -0.000015 0.000941
												CHANNELS 6 Xposition Yposition Zposition Xrotation Yrotation Zrotation
												End Site
												{
													OFFSET -263.880371 0.000000 0.516020
												}
											}
										}
									}
								}
								JOINT mixamorig:RightHandPinky1
								{
									OFFSET -8.076683 -0.486710 -3.806280
									CHANNELS 6 Xposition Yposition Zposition Xrotation Yrotation Zrotation
									JOINT mixamorig:RightHandPinky2
									{
										OFFSET -3.600014 -0.000015 -0.003747
										CHANNELS 6 Xposition Yposition Zposition Xrotation Yrotation Zrotation
										JOINT mixamorig:RightHandPinky3
										{
											OFFSET -2.099983 0.000000 -0.005739
											CHANNELS 6 Xposition Yposition Zposition Xrotation Yrotation Zrotation
											JOINT mixamorig:RightHandPinky4
											{
												OFFSET -2.115768 -0.000031 -0.003680
												CHANNELS 6 Xposition Yposition Zposition Xrotation Yrotation Zrotation
												End Site
												{
													OFFSET -211.577087 0.000000 -0.350686
												}
											}
										}
									}
								}
							}
						}
					}
				}
				JOINT mixamorig:LeftShoulder
				{
					OFFSET 4.570447 11.014725 -2.160855
					CHANNELS 6 Xposition Yposition Zposition Xrotation Yrotation Zrotation
					JOINT mixamorig:LeftArm
					{
						OFFSET 10.592371 -0.524597 -2.232119
						CHANNELS 6 Xposition Yposition Zposition Xrotation Yrotation Zrotation
						JOINT mixamorig:LeftForeArm
						{
							OFFSET 27.841532 -0.000031 0.000026
							CHANNELS 6 Xposition Yposition Zposition Xrotation Yrotation Zrotation
							JOINT mixamorig:LeftHand
							{
								OFFSET 28.328846 -0.000061 0.000022
								CHANNELS 6 Xposition Yposition Zposition Xrotation Yrotation Zrotation
								JOINT mixamorig:LeftHandThumb1
								{
									OFFSET 2.466141 -1.576172 2.681732
									CHANNELS 6 Xposition Yposition Zposition Xrotation Yrotation Zrotation
									JOINT mixamorig:LeftHandThumb2
									{
										OFFSET 3.217812 -1.872070 1.916482
										CHANNELS 6 Xposition Yposition Zposition Xrotation Yrotation Zrotation
										JOINT mixamorig:LeftHandThumb3
										{
											OFFSET 2.656029 -1.528778 1.514513
											CHANNELS 6 Xposition Yposition Zposition Xrotation Yrotation Zrotation
											JOINT mixamorig:LeftHandThumb4
											{
												OFFSET 2.020889 -1.154053 1.115139
												CHANNELS 6 Xposition Yposition Zposition Xrotation Yrotation Zrotation
												End Site
												{
													OFFSET 190.885437 -115.081749 130.048782
												}
											}
										}
									}
								}
								JOINT mixamorig:LeftHandIndex1
								{
									OFFSET 9.109314 -0.518021 2.259871
									CHANNELS 6 Xposition Yposition Zposition Xrotation Yrotation Zrotation
									JOINT mixamorig:LeftHandIndex2
									{
										OFFSET 3.699989 0.000000 -0.000322
										CHANNELS 6 Xposition Yposition Zposition Xrotation Yrotation Zrotation
										JOINT mixamorig:LeftHandIndex3
										{
											OFFSET 2.850006 0.000000 0.000352
											CHANNELS 6 Xposition Yposition Zposition Xrotation Yrotation Zrotation
											JOINT mixamorig:LeftHandIndex4
											{
												OFFSET 2.774864 -0.000031 -0.000027
												CHANNELS 6 Xposition Yposition Zposition Xrotation Yrotation Zrotation
												End Site
												{
													OFFSET 277.486267 0.000000 -0.009857
												}
											}
										}
									}
								}
								JOINT mixamorig:LeftHandMiddle1
								{
									OFFSET 9.533394 0.000061 0.000044
									CHANNELS 6 Xposition Yposition Zposition Xrotation Yrotation Zrotation
									JOINT mixamorig:LeftHandMiddle2
									{
										OFFSET 3.699989 -0.000015 -0.000231
										CHANNELS 6 Xposition Yposition Zposition Xrotation Yrotation Zrotation
										JOINT mixamorig:LeftHandMiddle3
										{
											OFFSET 2.949997 -0.000015 -0.000059
											CHANNELS 6 Xposition Yposition Zposition Xrotation Yrotation Zrotation
											JOINT mixamorig:LeftHandMiddle4
											{
												OFFSET 2.952896 0.000031 0.000063
												CHANNELS 6 Xposition Yposition Zposition Xrotation Yrotation Zrotation
												End Site
												{
													OFFSET 295.289337 0.000000 0.022810
												}
											}
										}
									}
								}
								JOINT mixamorig:LeftHandRing1
								{
									OFFSET 9.104523 -0.042999 -1.865074
									CHANNELS 6 Xposition Yposition Zposition Xrotation Yrotation Zrotation
									JOINT mixamorig:LeftHandRing2
									{
										OFFSET 3.150009 -0.000031 0.000043
										CHANNELS 6 Xposition Yposition Zposition Xrotation Yrotation Zrotation
										JOINT mixamorig:LeftHandRing3
										{
											OFFSET 2.949982 -0.000015 0.000040
											CHANNELS 6 Xposition Yposition Zposition Xrotation Yrotation Zrotation
											JOINT mixamorig:LeftHandRing4
											{
												OFFSET 2.644348 0.000000 0.000057
												CHANNELS 6 Xposition Yposition Zposition Xrotation Yrotation Zrotation
												End Site
												{
													OFFSET 264.434631 0.000000 0.012105
												}
											}
										}
									}
								}
								JOINT mixamorig:LeftHandPinky1
								{
									OFFSET 8.077789 -0.486847 -3.806259
									CHANNELS 6 Xposition Yposition Zposition Xrotation Yrotation Zrotation
									JOINT mixamorig:LeftHandPinky2
									{
										OFFSET 3.599953 0.000031 0.014727
										CHANNELS 6 Xposition Yposition Zposition Xrotation Yrotation Zrotation
										JOINT mixamorig:LeftHandPinky3
										{
											OFFSET 2.100021 0.000015 0.007705
											CHANNELS 6 Xposition Yposition Zposition Xrotation Yrotation Zrotation
											JOINT mixamorig:LeftHandPinky4
											{
												OFFSET 2.125504 0.000031 0.007517
												CHANNELS 6 Xposition Yposition Zposition Xrotation Yrotation Zrotation
												End Site
												{
													OFFSET 212.550781 0.000000 0.625752
												}
											}
										}
									}
								}
							}
						}
					}
				}
			}
		}
	}
	JOINT mixamorig:RightUpLeg
	{
		OFFSET -8.207787 -6.751648 -1.599560
		CHANNELS 6 Xposition Yposition Zposition Xrotation Yrotation Zrotation
		JOINT mixamorig:RightLeg
		{
			OFFSET -0.000002 -44.370117 0.345942
			CHANNELS 6 Xposition Yposition Zposition Xrotation Yrotation Zrotation
			JOINT mixamorig:RightFoot
			{
				OFFSET 0.000003 -44.423679 -3.043532
				CHANNELS 6 Xposition Yposition Zposition Xrotation Yrotation Zrotation
				JOINT mixamorig:RightToeBase
				{
					OFFSET -0.000002 -8.728671 10.710558
					CHANNELS 6 Xposition Yposition Zposition Xrotation Yrotation Zrotation
					JOINT mixamorig:RightToe_End
					{
						OFFSET -0.000001 -0.000679 9.278119
						CHANNELS 6 Xposition Yposition Zposition Xrotation Yrotation Zrotation
						End Site
						{
							OFFSET 0.000000 -0.067690 927.812134
						}
					}
				}
			}
		}
	}
	JOINT mixamorig:LeftUpLeg
	{
		OFFSET 8.207793 -6.751686 -1.599556
		CHANNELS 6 Xposition Yposition Zposition Xrotation Yrotation Zrotation
		JOINT mixamorig:LeftLeg
		{
			OFFSET -0.000004 -44.370014 0.346954
			CHANNELS 6 Xposition Yposition Zposition Xrotation Yrotation Zrotation
			JOINT mixamorig:LeftFoot
			{
				OFFSET -0.000001 -44.423672 -3.044401
				CHANNELS 6 Xposition Yposition Zposition Xrotation Yrotation Zrotation
				JOINT mixamorig:LeftToeBase
				{
					OFFSET -0.000002 -8.728669 10.710558
					CHANNELS 6 Xposition Yposition Zposition Xrotation Yrotation Zrotation
					JOINT mixamorig:LeftToe_End
					{
						OFFSET -0.000003 -0.000679 9.278133
						CHANNELS 6 Xposition Yposition Zposition Xrotation Yrotation Zrotation
						End Site
						{
							OFFSET 0.000000 -0.068021 927.813477
						}
					}
				}
			}
		}
	}
}
MOTION
Frames: 3
Frame Time: 0.033333
0.000006 104.270477 1.554256 0.000010 0.000003 -0.000113 -0.000005 10.181587 0.131522 0.000001 -0.000003 0.000084 -0.000000 9.893967 -1.470711 0.000001 0.000000 -0.000000 -0.000000 9.220802 -1.370642 0.000000 -0.000000 -0.000000 0.000001 16.740433 -2.049030 0.000000 -0.000000 -0.000000 0.000000 9.617859 1.685014 0.000000 0.000000 0.000000 0.000002 22.037384 7.501101 0.000000 -0.000000 0.000000 -4.569968 11.014880 -2.160881 0.000008 0.000001 -0.000038 -10.592870 -0.524772 -2.231881 76.399614 31.320526 -24.880825 -27.841532 0.000013 0.000527 -56.733501 106.441934 71.682221 -28.328823 -0.000007 0.000023 -0.000321 -0.000044 0.000008 -2.464452 -1.573957 2.682401 -23.524541 -154.685616 40.032405 -3.215283 -1.872600 1.924669 158.834915 31.579554 0.897110 -2.654951 -1.527885 1.513074 148.609002 26.061765 -42.018559 -2.018834 -1.152012 1.108060 -0.000004 -0.000001 0.000002 -9.108404 -0.517561 2.260119 98.934149 18.799657 -21.969732 -3.700074 0.000302 0.001512 95.950381 15.327708 -16.958371 -2.850076 0.000363 -0.000262 95.478402 12.767924 -14.037813 -2.772171 -0.000013 -0.000022 0.000001 0.000000 0.000000 -9.532598 0.000268 0.000247 96.055737 18.032900 -20.168971 -3.700077 0.000325 0.003978 95.712670 13.775567 -15.099953 -2.950074 0.000322 -0.001790 95.634943 13.063035 -14.393857 -2.946635 0.000003 -0.000154 -0.000002 -0.000000 0.000001 -9.103709 -0.042765 -1.864848 95.386331 20.496494 -22.420485 -3.379353 0.000297 -0.000790 97.168266 12.884208 -14.609022 -2.889763 0.000329 0.000656 99.169327 9.505217 -11.208112 -2.638819 -0.000018 0.000939 0.000002 0.000000 -0.000002 -8.076771 -0.486401 -3.806055 81.403294 21.648571 -18.543159 -3.600056 0.000243 -0.003528 84.918048 13.138231 -11.685692 -2.100026 0.000285 -0.005514 84.997770 9.014897 -8.052417 -2.115775 -0.000043 -0.003680 -0.000002 0.000002 -0.000004 4.570446 11.014691 -2.160851 -0.000018 0.000010 -0.000021 10.592416 -0.524484 -2.232368 70.138653 -19.814901 13.980943 27.841841 0.000066 -0.000184 105.662132 -71.657092 87.197665 28.328840 -0.000028 0.000021 0.000022 -0.000089 -0.000000 2.465878 -1.576097 2.681890 -52.072136 171.867340 23.049471 3.217830 -1.871765 1.916362 155.411242 -28.503068 15.065335 2.656087 -1.528638 1.514454 140.192051 -27.862001 43.740699 2.020899 -1.154065 1.115150 -0.000003 0.000008 0.000006 9.109361 -0.517874 2.259726 78.572447 -14.187252 11.616030 3.700042 0.000137 -0.000458 76.099898 -15.295809 12.013174 2.850048 0.000172 0.000195 75.129690 -12.790559 9.853239 2.774903 -0.000033 -0.000025 -0.000000 0.000001 -0.000000 9.533459 0.000200 -0.000108 79.163183 -11.717138 9.690573 3.700073 0.000155 -0.000371 81.175145 -13.421891 11.510550 2.950063 0.000145 -0.000209 80.341917 -17.583914 14.880378 2.952872 -0.000032 0.000062 0.000000 -0.000000 0.000000 9.104562 -0.042864 -1.865244 78.404684 -11.242023 9.180911 3.150039 0.000175 -0.000102 84.689920 -13.012724 11.869652 2.950029 0.000135 -0.000070 85.250951 -15.421809 14.208518 2.644317 0.000031 0.000056 0.000000 0.000000 0.000000 8.077826 -0.486739 -3.806416 69.846614 -14.599125 10.631597 3.600001 0.000150 0.014563 70.510666 -11.400058 8.428987 2.100053 0.000162 0.007535 73.018492 -11.041290 8.540899 2.125503 -0.000017 0.007515 -0.000001 0.000001 0.000000 -8.207786 -6.751667 -1.599560 -0.077001 -0.000003 0.000080 -0.000002 -44.370110 0.345938 0.153719 -0.000000 -0.000000 0.000000 -44.423679 -3.043532 -0.076700 0.000000 -0.000002 -0.000006 -8.728667 10.710559 -0.000009 -0.000000 -0.000000 -0.000001 -0.000679 9.278123 0.000000 -0.000000 -0.000000 8.207792 -6.751710 -1.599556 -0.074518 -0.000003 0.000081 -0.000002 -44.370014 0.346960 0.148822 0.000002 0.000000 -0.000001 -44.423664 -3.044403 -0.074314 0.000000 -0.000002 -0.000004 -8.728671 10.710558 0.000007 -0.000000 -0.000000 0.000000 -0.000680 9.278137 -0.000000 0.000000 -0.000001 
0.000006 104.270477 1.554256 0.000010 0.000003 -0.000113 -0.000005 10.181587 0.131522 0.000001 -0.000003 0.000084 -0.000000 9.893967 -1.470711 0.000001 0.000000 -0.000000 -0.000000 9.220802 -1.370642 0.000000 -0.000000 -0.000000 0.000001 16.740433 -2.049030 0.000000 -0.000000 -0.000000 0.000000 9.617859 1.685014 0.000000 0.000000 0.000000 0.000002 22.037384 7.501101 0.000000 -0.000000 0.000000 -4.569968 11.014880 -2.160881 0.000008 0.000001 -0.000038 -10.592859 -0.524795 -2.231842 76.568531 40.664501 -32.606159 -27.841534 -0.000001 0.000567 -52.769666 104.724135 65.505011 -28.328812 0.000010 0.000031 -0.000321 -0.000047 0.000004 -2.464405 -1.573794 2.682333 -45.433886 -159.970134 -4.240456 -3.215263 -1.872542 1.924615 149.679074 33.281791 21.844424 -2.654957 -1.527874 1.513064 147.766252 27.443229 -30.441562 -2.018822 -1.151998 1.108076 -0.000003 0.000003 -0.000000 -9.108366 -0.517540 2.260108 97.813951 15.501995 -17.793684 -3.700059 0.000339 0.001499 94.966827 13.507251 -14.693450 -2.850088 0.000363 -0.000269 94.459474 11.202017 -12.102200 -2.772143 -0.000016 -0.000017 -0.000001 -0.000004 -0.000002 -9.532591 0.000266 0.000236 93.846526 15.811722 -17.046774 -3.700076 0.000315 0.003979 94.632278 12.764514 -13.727318 -2.950058 0.000323 -0.001799 96.972191 12.123330 -13.674115 -2.946645 0.000001 -0.000160 -0.000004 -0.000002 -0.000001 -9.103700 -0.042764 -1.864864 91.691820 18.789538 -19.295624 -3.379346 0.000310 -0.000788 95.013430 11.532102 -12.599278 -2.889745 0.000350 0.000653 100.935846 8.433860 -10.267079 -2.638801 -0.000015 0.000942 0.000000 0.000000 0.000003 -8.076750 -0.486401 -3.806057 78.423617 21.136652 -17.182010 -3.600051 0.000266 -0.003537 81.935817 11.633014 -9.787552 -2.100016 0.000318 -0.005504 86.414816 6.526739 -5.922645 -2.115758 -0.000042 -0.003678 -0.000000 -0.000000 -0.000001 4.570446 11.014691 -2.160851 -0.000018 0.000010 -0.000021 10.592426 -0.524484 -2.232376 70.097917 -23.610490 16.682001 27.841831 0.000050 -0.000182 107.361811 -74.640177 92.086291 28.328831 -0.000028 0.000021 0.000021 -0.000086 0.000000 2.465973 -1.576124 2.681921 -43.298898 169.397694 -3.209147 3.217860 -1.871851 1.916397 159.939862 -24.530416 33.213390 2.656110 -1.528687 1.514485 138.070198 -28.078708 55.723040 2.020890 -1.154069 1.115142 0.000001 0.000003 0.000006 9.109380 -0.517880 2.259730 79.706306 -16.675156 13.938726 3.700033 0.000132 -0.000478 77.089955 -12.428412 9.929635 2.850058 0.000164 0.000218 75.918509 -10.499776 8.199284 2.774880 -0.000015 -0.000027 -0.000001 0.000001 -0.000000 9.533466 0.000196 -0.000085 79.199793 -15.970340 13.231360 3.700038 0.000159 -0.000367 81.582566 -11.729398 10.128150 2.950062 0.000164 -0.000191 82.009856 -11.573488 10.073318 2.952865 -0.000031 0.000064 0.000000 -0.000000 0.000000 9.104582 -0.042871 -1.865219 79.148526 -15.531625 12.863650 3.150038 0.000190 -0.000095 83.352576 -12.262390 10.926557 2.950027 0.000178 -0.000074 85.295559 -11.025312 10.161633 2.644319 0.000030 0.000056 0.000002 0.000001 -0.000000 8.077844 -0.486752 -3.806404 70.911229 -18.668333 13.789203 3.600009 0.000148 0.014568 72.847915 -16.502019 12.610726 2.100036 0.000175 0.007552 76.940121 -12.122740 10.032294 2.125504 -0.000001 0.007513 -0.000000 0.000000 -0.000000 -8.207786 -6.751667 -1.599560 -0.077001 -0.000003 0.000080 -0.000002 -44.370110 0.345938 0.153719 -0.000000 -0.000000 0.000000 -44.423679 -3.043532 -0.076700 0.000000 -0.000002 -0.000006 -8.728667 10.710559 -0.000009 -0.000000 -0.000000 -0.000001 -0.000679 9.278123 0.000000 -0.000000 -0.000000 8.207792 -6.751710 -1.599556 -0.074518 -0.000003 0.000081 -0.000002 -44.370014 0.346960 0.148822 0.000002 0.000000 -0.000001 -44.423664 -3.044403 -0.074314 0.000000 -0.000002 -0.000004 -8.728671 10.710558 0.000007 -0.000000 -0.000000 0.000000 -0.000680 9.278137 -0.000000 0.000000 -0.000001 
0.000006 104.270477 1.554256 0.000010 0.000003 -0.000113 -0.000005 10.181587 0.131522 0.000001 -0.000003 0.000084 -0.000000 9.893967 -1.470711 0.000001 0.000000 -0.000000 -0.000000 9.220802 -1.370642 0.000000 -0.000000 -0.000000 0.000001 16.740433 -2.049030 0.000000 -0.000000 -0.000000 0.000000 9.617859 1.685014 0.000000 0.000000 0.000000 0.000002 22.037384 7.501101 0.000000 -0.000000 0.000000 -4.569968 11.014880 -2.160881 0.000008 0.000001 -0.000038 -10.592862 -0.524791 -2.231858 76.734969 38.962343 -31.289944 -27.841526 0.000014 0.000532 -51.528573 103.017339 62.512330 -28.328825 0.000022 0.000035 -0.000320 -0.000045 0.000005 -2.464405 -1.573786 2.682328 -45.982326 -160.104074 -5.543810 -3.215251 -1.872521 1.924620 148.527572 33.492075 26.025428 -2.654960 -1.527851 1.513059 148.096547 27.433805 -30.066431 -2.018827 -1.152018 1.108067 -0.000000 -0.000006 0.000005 -9.108377 -0.517563 2.260107 97.993182 15.888576 -18.291248 -3.700062 0.000331 0.001503 95.144371 14.264362 -15.564468 -2.850091 0.000361 -0.000269 93.704472 11.913487 -12.702478 -2.772172 -0.000015 -0.000021 -0.000001 -0.000002 0.000000 -9.532598 0.000265 0.000236 94.170332 16.304649 -17.671458 -3.700069 0.000329 0.003989 95.084607 13.621917 -14.769195 -2.950046 0.000325 -0.001792 96.760408 12.793608 -14.375779 -2.946628 0.000001 -0.000153 0.000001 -0.000002 -0.000002 -9.103723 -0.042766 -1.864863 91.745765 19.291480 -19.829856 -3.379339 0.000305 -0.000781 95.138982 11.850632 -12.974609 -2.889754 0.000341 0.000681 101.081616 8.571753 -10.460770 -2.638806 -0.000020 0.000945 -0.000002 -0.000001 0.000002 -8.076773 -0.486408 -3.806055 77.888827 21.686966 -17.470770 -3.600054 0.000268 -0.003537 82.294579 11.573231 -9.797243 -2.100034 0.000307 -0.005509 86.493773 6.285934 -5.704925 -2.115784 -0.000044 -0.003676 -0.000004 0.000001 -0.000003 4.570446 11.014691 -2.160851 -0.000018 0.000010 -0.000021 10.592440 -0.524475 -2.232395 68.568590 -28.468713 19.624018 27.841831 0.000026 -0.000179 110.181524 -76.447760 96.915152 28.328825 -0.000014 0.000020 0.000020 -0.000088 -0.000000 2.466193 -1.576146 2.681875 -11.868557 159.491092 -64.368761 3.217867 -1.871877 1.916411 161.840854 -22.143103 41.583708 2.656119 -1.528632 1.514477 142.877244 -26.438897 54.764395 2.020895 -1.154083 1.115147 0.000002 0.000003 0.000004 9.109385 -0.517867 2.259724 85.284829 -17.859360 16.455476 3.700042 0.000146 -0.000480 82.620502 -13.024857 11.472893 2.850028 0.000186 0.000216 79.886384 -10.750891 9.009732 2.774871 -0.000044 -0.000028 0.000000 0.000000 0.000000 9.533470 0.000196 -0.000083 82.864080 -17.074018 15.086407 3.700052 0.000165 -0.000394 85.514132 -11.696779 10.818047 2.950052 0.000166 -0.000201 84.734651 -11.118393 10.148853 2.952874 -0.000032 0.000063 -0.000000 -0.000000 -0.000000 9.104593 -0.042863 -1.865226 82.394054 -16.995187 14.903801 3.150057 0.000182 -0.000097 86.356513 -13.380067 12.563710 2.950009 0.000175 -0.000077 87.138864 -11.299960 10.754298 2.644342 0.000015 0.000056 -0.000001 -0.000000 -0.000000 8.077860 -0.486739 -3.806401 74.075942 -20.015512 15.636185 3.600010 0.000149 0.014586 74.894506 -18.018806 14.262631 2.100053 0.000172 0.007541 77.163898 -13.161878 10.909846 2.125496 -0.000015 0.007513 0.000000 0.000001 -0.000000 -8.207786 -6.751667 -1.599560 -0.077001 -0.000003 0.000080 -0.000002 -44.370110 0.345938 0.153719 -0.000000 -0.000000 0.000000 -44.423679 -3.043532 -0.076700 0.000000 -0.000002 -0.000006 -8.728667 10.710559 -0.000009 -0.000000 -0.000000 -0.000001 -0.000679 9.278123 0.000000 -0.000000 -0.000000 8.207792 -6.751710 -1.599556 -0.074518 -0.000003 0.000081 -0.000002 -44.370014 0.346960 0.148822 0.000002 0.000000 -0.000001 -44.423664 -3.044403 -0.074314 0.000000 -0.000002 -0.000004 -8.728671 10.710558 0.000007 -0.000000 -0.000000 0.000000 -0.000680 9.278137 -0.000000 0.000000 -0.000001 
